<svg xmlns="http://www.w3.org/2000/svg" version="1.1" xmlns:xlink="http://www.w3.org/1999/xlink" width="150" height="150"><svg xmlns="http://www.w3.org/2000/svg" viewBox="0 0 150 150"><path fill="#ffcd05" d="M75 0a75 75 0 1 0 75 75A75 75 0 0 0 75 0m28.3 53c-.2.23-7 6.9-9.93 9.8a3.7 3.7 0 0 0-1 3.35l1.35 6.88C95 71.9 96.3 70.85 97.42 70s1.6-.1 2.18.47 1.2 1.2.47 2.18a58 58 0 0 1-4.93 5.57l-.3.3c2.16 11 5 25.33 5.11 26a3.77 3.77 0 0 1-1 3.35l-2 2c-.4.4-.63 0-.63 0L84 85.55l-.52-1a5 5 0 0 0-.65-.83l-4.44-4.42a1.23 1.23 0 0 0-1.72 0c-8.56 7.62-13.76 11.62-16.63 14-1.48 1.3-1 3.43-.83 4.18.9 4.55 2.25 11.45 2.38 12.07a2.86 2.86 0 0 1-.75 2.48l-1.48 1.47a.31.31 0 0 1-.52-.1l-7-14.07c-1.38 1-2.73 1.85-3 1.7s.73-1.6 1.7-3l-14-7a.31.31 0 0 1-.1-.52l1.47-1.48a2.75 2.75 0 0 1 2.48-.75l12.08 2.38c.75.17 2.87.65 4.17-.83 2.43-2.87 6.45-8.07 14-16.62a1.24 1.24 0 0 0 0-1.73l-4.45-4.45a5 5 0 0 0-.82-.65l-1-.53-24.19-12.16s-.42-.22 0-.62l2-2a3.78 3.78 0 0 1 3.35-1l26 5.1.3-.3a51.6 51.6 0 0 1 5.53-4.93c1-.72 1.6-.1 2.17.48s1.2 1.2.48 2.17q-1.27 1.7-3.08 3.65l6.88 1.35a3.65 3.65 0 0 0 3.35-.95c2.9-3 9.58-9.7 9.8-9.92 5.68-5.68 12.85-9.08 14.15-7.78S109 47.37 103.3 53"></path></svg><style>@media (prefers-color-scheme: light) { :root { filter: none; } }
@media (prefers-color-scheme: dark) { :root { filter: none; } }
</style></svg>